<svg width="30" height="30" viewBox="0 0 18 16" fill="none" xmlns="http://www.w3.org/2000/svg"><path d="M16.15 4.334c.011.16.011.32.011.48 0 4.876-3.712 10.496-10.496 10.496-2.09 0-4.032-.606-5.665-1.657.297.035.582.046.89.046a7.388 7.388 0 004.58-1.576 3.695 3.695 0 01-3.448-2.558c.228.034.456.057.696.057.331 0 .663-.046.971-.126a3.69 3.69 0 01-2.958-3.62V5.83a3.715 3.715 0 001.667.468A3.686 3.686 0 01.754 3.226c0-.685.182-1.314.502-1.862a10.486 10.486 0 007.607 3.86 4.165 4.165 0 01-.091-.845A3.687 3.687 0 0112.46.69a3.68 3.68 0 012.695 1.165 7.262 7.262 0 002.341-.89 3.679 3.679 0 01-1.621 2.032A7.395 7.395 0 0018 2.427a7.928 7.928 0 01-1.85 1.907z" fill="#1DA1F2"/></svg>